<svg width="16" height="16" viewBox="0 0 16 16" fill="none" xmlns="http://www.w3.org/2000/svg">
<g clip-path="url(#clip0_210_25154)">
<path d="M6.36194 9.63764L9.63727 6.3623" stroke="#7A7A7A" stroke-width="1.5" stroke-linecap="round"/>
<path d="M1.35449 11.2693L0.613727 11.3866H0.613727L1.35449 11.2693ZM1.35449 10.731L0.613727 10.6137L1.35449 10.731ZM5.2691 14.6456L5.38642 15.3864H5.38643L5.2691 14.6456ZM4.73086 14.6456L4.84819 13.9049H4.84819L4.73086 14.6456ZM8.64547 11.2693L9.38623 11.3866V11.3866L8.64547 11.2693ZM8.64547 10.731L9.38623 10.6137L9.38623 10.6137L8.64547 10.731ZM4.73086 7.35468L4.84819 8.09544L4.84819 8.09544L4.73086 7.35468ZM5.2691 7.35468L5.38643 6.61391L5.38642 6.61391L5.2691 7.35468ZM5.49123 8.25692C5.8298 8.49556 6.29771 8.41455 6.53635 8.07599C6.77499 7.73743 6.69398 7.26951 6.35542 7.03088L5.49123 8.25692ZM8.96927 9.64472C8.73063 9.30616 8.26271 9.22516 7.92415 9.46379C7.58559 9.70243 7.50458 10.1703 7.74322 10.5089L8.96927 9.64472ZM3.34068 12.6595C2.87273 12.1915 2.56509 11.8824 2.35748 11.6243C2.15871 11.3773 2.11014 11.2459 2.09526 11.152L0.613727 11.3866C0.68629 11.8448 0.909508 12.2175 1.18874 12.5646C1.45913 12.9007 1.8357 13.2758 2.28002 13.7201L3.34068 12.6595ZM2.28002 8.28021C1.8357 8.72453 1.45913 9.09965 1.18874 9.43574C0.909508 9.78283 0.68629 10.1556 0.613727 10.6137L2.09526 10.8484C2.11014 10.7544 2.15871 10.6231 2.35748 10.376C2.56509 10.1179 2.87273 9.80882 3.34068 9.34087L2.28002 8.28021ZM2.09526 11.152C2.07933 11.0514 2.07933 10.9489 2.09526 10.8484L0.613727 10.6137C0.573175 10.8698 0.573175 11.1306 0.613727 11.3866L2.09526 11.152ZM6.65928 12.6595C6.19132 13.1274 5.88223 13.435 5.62416 13.6427C5.37709 13.8414 5.24572 13.89 5.15177 13.9049L5.38643 15.3864C5.84457 15.3139 6.21731 15.0906 6.5644 14.8114C6.90049 14.541 7.27561 14.1644 7.71994 13.7201L6.65928 12.6595ZM2.28002 13.7201C2.72435 14.1644 3.09947 14.541 3.43556 14.8114C3.78265 15.0906 4.15539 15.3139 4.61353 15.3864L4.84819 13.9049C4.75424 13.89 4.62287 13.8414 4.3758 13.6427C4.11773 13.435 3.80864 13.1274 3.34068 12.6595L2.28002 13.7201ZM5.15177 13.9049C5.05121 13.9208 4.94876 13.9208 4.84819 13.9049L4.61353 15.3864C4.86957 15.427 5.13039 15.427 5.38642 15.3864L5.15177 13.9049ZM7.71994 13.7201C8.16426 13.2758 8.54083 12.9007 8.81122 12.5646C9.09045 12.2175 9.31367 11.8448 9.38623 11.3866L7.9047 11.152C7.88982 11.2459 7.84125 11.3773 7.64248 11.6243C7.43487 11.8824 7.12723 12.1915 6.65928 12.6595L7.71994 13.7201ZM7.9047 10.8484C7.92063 10.9489 7.92063 11.0514 7.9047 11.152L9.38623 11.3866C9.42678 11.1306 9.42678 10.8698 9.38623 10.6137L7.9047 10.8484ZM3.34068 9.34087C3.80864 8.87291 4.11773 8.56528 4.3758 8.35766C4.62287 8.15889 4.75424 8.11032 4.84819 8.09544L4.61353 6.61391C4.15539 6.68647 3.78265 6.90969 3.43556 7.18892C3.09947 7.45931 2.72435 7.83588 2.28002 8.28021L3.34068 9.34087ZM5.38642 6.61391C5.13039 6.57336 4.86957 6.57336 4.61353 6.61391L4.84819 8.09544C4.94876 8.07951 5.0512 8.07951 5.15178 8.09544L5.38642 6.61391ZM6.35542 7.03088C6.06583 6.82676 5.75332 6.67202 5.38643 6.61391L5.15177 8.09544C5.22814 8.10754 5.32797 8.14184 5.49123 8.25692L6.35542 7.03088ZM7.74322 10.5089C7.8583 10.6722 7.8926 10.772 7.9047 10.8484L9.38623 10.6137C9.32812 10.2468 9.17338 9.93431 8.96927 9.64472L7.74322 10.5089Z" fill="#7A7A7A"/>
<path d="M7.35449 4.73104L6.61373 4.61372V4.61372L7.35449 4.73104ZM7.35449 5.26928L6.61373 5.38661L7.35449 5.26928ZM11.2691 8.64565L11.3864 9.38642H11.3864L11.2691 8.64565ZM10.7309 8.64565L10.8482 7.90488L10.8482 7.90488L10.7309 8.64565ZM14.6455 4.73104L15.3862 4.61372V4.61372L14.6455 4.73104ZM14.6455 5.26928L15.3862 5.38661V5.38661L14.6455 5.26928ZM11.2691 1.35468L11.3864 0.61391L11.3864 0.61391L11.2691 1.35468ZM10.7309 1.35468L10.8482 2.09544L10.8482 2.09544L10.7309 1.35468ZM7.03069 6.3556C7.26933 6.69417 7.73725 6.77517 8.07581 6.53653C8.41437 6.29789 8.49538 5.82998 8.25674 5.49142L7.03069 6.3556ZM10.5087 7.74341C10.1702 7.50477 9.70225 7.58577 9.46361 7.92434C9.22497 8.2629 9.30598 8.73081 9.64454 8.96945L10.5087 7.74341ZM8.28002 2.28021C7.8357 2.72453 7.45913 3.09965 7.18874 3.43574C6.90951 3.78283 6.68629 4.15557 6.61373 4.61372L8.09526 4.84837C8.11014 4.75443 8.15871 4.62305 8.35748 4.37598C8.56509 4.11791 8.87273 3.80882 9.34068 3.34087L8.28002 2.28021ZM8.09526 5.15196C8.07933 5.05139 8.07933 4.94894 8.09526 4.84837L6.61373 4.61372C6.57317 4.86975 6.57318 5.13057 6.61373 5.38661L8.09526 5.15196ZM12.6593 6.65946C12.1913 7.12741 11.8822 7.43505 11.6242 7.64267C11.3771 7.84143 11.2457 7.89001 11.1518 7.90488L11.3864 9.38642C11.8446 9.31385 12.2173 9.09064 12.5644 8.8114C12.9005 8.54102 13.2756 8.16445 13.7199 7.72012L12.6593 6.65946ZM11.1518 7.90488C11.0512 7.92081 10.9488 7.92081 10.8482 7.90488L10.6135 9.38642C10.8696 9.42697 11.1304 9.42697 11.3864 9.38642L11.1518 7.90488ZM12.6593 3.34087C13.1272 3.80882 13.4349 4.11791 13.6425 4.37598C13.8412 4.62305 13.8898 4.75443 13.9047 4.84837L15.3862 4.61372C15.3137 4.15557 15.0905 3.78283 14.8112 3.43574C14.5408 3.09965 14.1643 2.72453 13.7199 2.28021L12.6593 3.34087ZM13.7199 7.72012C14.1643 7.27579 14.5408 6.90068 14.8112 6.56459C15.0905 6.21749 15.3137 5.84475 15.3862 5.38661L13.9047 5.15196C13.8898 5.2459 13.8412 5.37727 13.6425 5.62434C13.4349 5.88241 13.1272 6.19151 12.6593 6.65946L13.7199 7.72012ZM13.9047 4.84837C13.9206 4.94894 13.9206 5.05139 13.9047 5.15196L15.3862 5.38661C15.4268 5.13057 15.4268 4.86975 15.3862 4.61372L13.9047 4.84837ZM13.7199 2.28021C13.2756 1.83588 12.9005 1.45931 12.5644 1.18893C12.2173 0.909691 11.8446 0.686474 11.3864 0.61391L11.1518 2.09544C11.2457 2.11032 11.3771 2.15889 11.6242 2.35766C11.8822 2.56528 12.1913 2.87291 12.6593 3.34087L13.7199 2.28021ZM9.34068 3.34087C9.80864 2.87291 10.1177 2.56528 10.3758 2.35766C10.6229 2.15889 10.7542 2.11032 10.8482 2.09544L10.6135 0.61391C10.1554 0.686473 9.78265 0.909691 9.43556 1.18892C9.09947 1.45931 8.72435 1.83588 8.28002 2.28021L9.34068 3.34087ZM11.3864 0.61391C11.1304 0.573359 10.8696 0.573358 10.6135 0.61391L10.8482 2.09544C10.9488 2.07951 11.0512 2.07951 11.1518 2.09544L11.3864 0.61391ZM8.25674 5.49142C8.14166 5.32815 8.10736 5.22833 8.09526 5.15196L6.61373 5.38661C6.67184 5.7535 6.82658 6.06602 7.03069 6.3556L8.25674 5.49142ZM9.64454 8.96945C9.93412 9.17356 10.2466 9.32831 10.6135 9.38642L10.8482 7.90488C10.7718 7.89279 10.672 7.85848 10.5087 7.74341L9.64454 8.96945Z" fill="#7A7A7A"/>
</g>
<defs>
<clipPath id="clip0_210_25154">
<rect width="16" height="16" fill="white"/>
</clipPath>
</defs>
</svg>
